<svg xmlns="http://www.w3.org/2000/svg" viewBox="0 0 108.7 62.26"><title>Deutsche Welle logo</title><path d="M490.77,524.3H475.54V500.19h15.23c6.79,0,13.76,3.42,13.76,12.05s-7,12.05-13.76,12.05M489,487.71a24.4,24.4,0,1,0,24.4,24.4,24.4,24.4,0,0,0-24.4-24.4" transform="translate(-457.65 -480.87)" style="fill:#fff"/><path d="M489.85,507.21h-6.72v10.07h6.72c4.88,0,6.6-2,6.6-5s-1.74-5-6.6-5" transform="translate(-457.65 -480.87)" style="fill:#fff"/><path d="M542.92,512.92l-4-11H533.4l-4,11-3.23-11h-7.21l6.78,21.24h6.11l4.29-10.28,4.36,10.28h6.11l6.78-21.24h-7.21l-3.23,11Z" transform="translate(-457.65 -480.87)" style="fill:#fff"/><path d="M546.57,523.15h-6.11l-4.36-10.28-4.29,10.28h-6.11l-6.78-21.24h7.21l3.23,11,4-11h5.48l4,11,3.23-11h7.21ZM489,536.52a24.4,24.4,0,1,1,24.4-24.4,24.4,24.4,0,0,1-24.4,24.4m46.18-55.65A31.05,31.05,0,0,0,512,491.27a31.13,31.13,0,1,0,0,41.46,31.13,31.13,0,1,0,23.22-51.86" transform="translate(-457.65 -480.87)" style="fill:#0c2950"/><path d="M489.85,517.28h-6.72V507.21h6.72c4.87,0,6.6,2,6.6,5s-1.72,5-6.6,5m.93-17.09H475.54V524.3h15.23c6.79,0,13.76-3.42,13.76-12.05s-7-12.05-13.76-12.05" transform="translate(-457.65 -480.87)" style="fill:#0c2950"/></svg>