<svg viewBox="0 0 240 240" xmlns="http://www.w3.org/2000/svg" fill-rule="evenodd" clip-rule="evenodd" stroke-linejoin="round" stroke-miterlimit="1.4">
  <path d="M28.3 82.7c0-17.3-2.1-20.8-2.1-24.3 0-4.1 15-5.5 19.2-5.5 5.5 0 5.9 6.9 6.9 11.2C56 57.6 61 51 71 51c8.5 0 9.8 5.8 9.8 9.3 0 3.3-1.8 14.4-5.4 14.4-2.4 0-4.6-1.3-8-1.3-7.2 0-11.8 5.1-13.8 8.5v55.3c0 3.6-3 5.5-10.3 5.5h-4.7c-7.3 0-10.3-1.9-10.3-5.5V82.7zm104 60h-8.5c-5.6 0-8.8-1.2-9.4-3.7L92.6 59c-.4-1-.4-2-.4-2.6 0-2.7 7-4.2 14.3-4.2 4.6-.3 9.3.8 10 3.3l13.7 53 13-53c.6-2.5 4-3.7 9.5-3.7h4.2c4.7 0 9 1.2 9.4 3.7l12.7 53 14-53c.7-2.5 4-3.7 9.4-3.7h.8c7.3 0 10.6 1.7 10.6 4.6 0 .7-.1 1.5-.4 2.5L193.1 139c-.7 2.5-4.6 3.7-9.4 3.7h-8.5c-5.5 0-8.8-1.2-9.4-3.7l-12.4-48.4-11.7 48.4c-.5 2.5-4.7 3.7-9.4 3.7z" fill="#404040"/>
  <path d="M239.8 117.4c-1.4-11-15-19.5-23.5-20.7 3 2.3 6.5 4.3 9.2 7 4.7 4.5 6.8 10 5.2 16.5a32.5 32.5 0 0 1-10.1 15.5 115.6 115.6 0 0 1-37 22.3 259.9 259.9 0 0 1-75.8 17.8 187.1 187.1 0 0 1-51.2-1.8c-9.6-1.8-19-4.4-27-10.1-8.3-5.8-11-13-8.2-21.3l-3.5-12.9a54.1 54.1 0 0 0-15 16.7c-5.3 10-3.3 19.5 5.5 26.8 8 6.6 17.6 9.7 27.5 11.9a207 207 0 0 0 63.8 2.7 306 306 0 0 0 67.7-13.6 184.1 184.1 0 0 0 51.5-24.4c6.7-4.7 12.7-10 17-17 3-4.6 4.6-9.7 4-15.4z" fill="url(#_Linear1)" fill-rule="nonzero"/>
  <defs>
    <linearGradient id="_Linear1" x2="1" gradientUnits="userSpaceOnUse" gradientTransform="translate(0 142.9) scale(240.079)">
      <stop offset="0" stop-color="#f65c51"/>
      <stop offset=".1" stop-color="#d9615e"/>
      <stop offset=".5" stop-color="#906f7f"/>
      <stop offset=".9" stop-color="#1c84b2"/>
      <stop offset="1" stop-color="#0988bb"/>
    </linearGradient>
  </defs>
</svg>
