<?xml version="1.0" encoding="utf-8"?>
<!-- Generator: Adobe Illustrator 19.1.0, SVG Export Plug-In . SVG Version: 6.00 Build 0)  -->
<svg version="1.1" id="Layer_1" xmlns="http://www.w3.org/2000/svg" xmlns:xlink="http://www.w3.org/1999/xlink" x="0px" y="0px"
	 width="148.6px" height="47.3px" viewBox="0 0 148.6 47.3" enable-background="new 0 0 148.6 47.3" xml:space="preserve">
<path d="M86.9,47.3c-0.2-0.2-0.3-0.5-0.5-0.7c-0.9-1.2-1.9-2.3-2.8-3.5c-0.9-1.2-1.8-2.3-2.8-3.5c-0.9-1.1-1.7-2.1-2.6-3.2
	c-0.8-1-1.6-2.1-2.4-3.1c-0.7-0.9-1.4-1.7-2.1-2.6c-0.8-1-1.6-2-2.4-3c-0.8-1-1.6-2.1-2.5-3.1c-0.9-1.1-1.7-2.2-2.5-3.2
	c0,0-0.1-0.1-0.2-0.1c0,0.2,0,0.4,0,0.5c0,7.2,0,14.3,0,21.5c0,0.7,0.2,1.3,0.7,1.9c0.4,0.6,1.1,0.9,1.8,0.9c0.4,0,0.8,0,1.3,0
	c0.1,0.4,0,0.7,0.1,1c-0.4,0.1-10.3,0.1-11,0c0-0.1-0.1-0.1-0.1-0.2c0-0.5,0-0.5,0.5-0.6c0.5-0.1,1-0.3,1.5-0.5
	c0.8-0.3,1.3-0.8,1.7-1.6c0.1-0.1,0.1-0.3,0.1-0.4c0-0.4,0-0.8,0-1.1c0-8.3,0-16.7,0-25c0-1.5-0.8-2.7-2.3-3.2
	c-0.3-0.1-0.6-0.2-1-0.3c0-0.2,0-0.5,0-0.7c3.1,0,6.2,0,9.3,0c0,0.1,0,0.2,0,0.3c0,0.6,0,1.1,0,1.7c0,0.2,0.1,0.3,0.2,0.5
	c0.7,0.9,1.5,1.9,2.2,2.8c0.7,0.9,1.5,1.8,2.2,2.8c0.8,1,1.6,2,2.4,3c0.8,0.9,1.5,1.9,2.3,2.8c0.6,0.8,1.2,1.5,1.8,2.3
	c0.7,0.9,1.5,1.8,2.2,2.8c0.6,0.8,1.2,1.5,1.8,2.3c0.4,0.6,0.9,1.1,1.4,1.8c0-0.2,0-0.4,0-0.5c0-6,0-11.9,0-17.9
	c0-0.9-0.3-1.7-0.9-2.3c-0.5-0.5-1-0.9-1.7-1.1c-0.4-0.2-0.4-0.2-0.3-0.7c0.3-0.1,29.1-0.1,29.8,0c0,0.2,0,0.5,0,0.7
	c-0.1,0.1-0.3,0.1-0.5,0.2c-0.8,0.3-1.3,1.1-1.1,2c0.2,1.1,0.6,2.1,0.9,3.1c0.5,1.6,1.1,3.2,1.7,4.8c0.4,1.2,0.8,2.4,1.3,3.6
	c0.2-0.2,0.3-0.5,0.4-0.8c0.8-2.1,1.6-4.3,2.4-6.4c0.1-0.4,0.2-0.7,0.1-1.1c-0.3-1-0.5-2-0.9-3c-0.2-0.6-0.5-1.1-0.9-1.6
	c-0.4-0.5-0.9-0.8-1.5-0.8c0-0.3,0-0.5,0-0.7c0.3-0.1,8-0.1,8.8,0c0.1,0.3,0.1,0.5,0,0.8c-0.4,0.1-0.7,0.3-1,0.4
	c-0.5,0.2-0.8,0.8-0.7,1.6c0.1,0.5,0.3,1,0.5,1.5c0.3,1,0.7,1.9,1.1,2.9c0,0.1,0.1,0.1,0.1,0.2c1.8-0.4,3.5,0.1,5.1,1.1
	c0.2-0.4,0.3-0.8,0.5-1.3c0.4-1,0.7-2.1,1.1-3.1c0.1-0.3,0.2-0.6,0.2-0.8c0.1-0.7-0.2-1.5-0.9-1.8c-0.2-0.1-0.3-0.1-0.5-0.2
	c-0.3-0.1-0.4-0.4-0.4-0.7c0-0.3,0.2-0.5,0.5-0.5c0.1,0,0.1,0,0.2,0c1.7,0,3.5,0,5.2,0c0.2,0,0.4,0,0.5,0.1c0.4,0.4,0.3,1-0.3,1.3
	c-0.2,0.1-0.4,0.1-0.7,0.2c-0.6,0.3-1.1,0.7-1.3,1.4c-0.5,1.5-1,2.9-1.5,4.4c-0.4,1.1-0.8,2.2-1.1,3.3c-0.1,0.3-0.1,0.5,0,0.7
	c0.6,1.4,1.2,2.9,1.7,4.3c0.2,0.6,0.3,1.2,0.5,1.9c0.2,0.8,0.6,1.6,1.1,2.3c0.7,0.9,1.5,1.7,2.5,2.2c0.9,0.5,1.9,0.8,3,0.8
	c1,0,2-0.1,3-0.4c1-0.4,2-0.9,2.7-1.7c0.5-0.6,0.9-1.1,1.2-1.8c0.4-1,0.1-1.9-0.6-2.6c-0.6-0.6-1.3-1.1-2.1-1.5
	c-1.5-0.8-3-1.5-4.5-2.2c-0.7-0.4-1.4-0.8-2-1.2c-0.7-0.5-1.3-1-1.7-1.8c-0.6-1.2-0.8-2.4-0.7-3.7c0.1-1.1,0.5-2.1,1.1-3
	c1-1.3,2.3-2.1,3.8-2.6c0.5-0.1,1.1-0.3,1.7-0.2c0.3,0,0.6,0,1,0c1.5,0.1,2.8,0.4,4.1,1.2c0.3,0.2,0.6,0.3,1,0.2
	c0-0.1,0.1-0.3,0.1-0.4c0.1-0.2,0.2-0.4,0.3-0.5c0.3-0.3,0.6-0.3,0.8,0c0.1,0.1,0.2,0.2,0.2,0.3c0.1,0.3,0.1,0.6,0.1,0.9
	c0,0.7,0,1.3,0,2c0.1,1.1,0.1,2.2,0.1,3.2c0,0.3,0.1,0.6,0.1,1c0,0.1,0,0.2,0,0.3c-0.3,0-0.5,0-0.8,0c-0.1-0.5-0.3-1.1-0.5-1.6
	c-0.5-1.2-1.1-2.4-2.1-3.3c-0.8-0.7-1.6-1.3-2.7-1.6c-1.2-0.3-2.4-0.3-3.4,0.4c-0.8,0.6-1.2,1.3-1.3,2.3c0,0.8,0.2,1.6,0.6,2.3
	c0.2,0.4,0.5,0.5,0.8,0.7c0.9,0.7,1.9,1.2,2.9,1.7c0.8,0.4,1.6,0.8,2.4,1.2c1,0.5,1.9,1,2.8,1.7c0.8,0.7,1.6,1.4,1.9,2.4
	c0.1,0.2,0.1,0.4,0.2,0.5c0,0.8,0,1.7,0,2.5c0,0.2-0.1,0.3-0.1,0.5c-0.5,2.2-1.7,3.8-3.7,4.9c-1.8,1-3.7,1.4-5.7,1.5
	c-0.5,0-1-0.1-1.4-0.1c-0.8,0-1.6-0.1-2.4-0.3c-1.5-0.3-2.9-0.7-4.2-1.5c-1-0.6-1.9-1.3-2.6-2.1c-0.6-0.8-1.2-1.6-1.6-2.5
	c-0.1-0.1-0.1-0.2-0.2-0.4c-0.1,0.2-0.1,0.3-0.2,0.4c-0.5,1.4-1,2.8-1.4,4.1c-0.3,0.8-0.6,1.7-0.9,2.5c0,0.1-0.1,0.2-0.2,0.3
	c-1.8-4.7-3.6-9.3-5.3-13.9c-0.6,1.5-1.2,3-1.8,4.5c-0.6,1.5-1.2,2.9-1.8,4.4c-0.6,1.5-1.2,3-1.8,4.5c-0.1-0.1-0.1-0.1-0.1-0.1
	c-0.9-2.5-1.8-5-2.7-7.5c-0.6,2.2-1.1,4.3-1.7,6.4c-0.1,0.5-0.8,0.8-1.2,0.4c-0.2-0.2-0.5-0.2-0.7-0.2c-5.1,0-10.1,0-15.2,0
	c-0.2,0-0.3,0-0.5,0c0-0.1,0-0.2,0-0.3c0-0.3,0-0.4,0.4-0.4c0.2,0,0.3-0.1,0.5-0.1c0.9-0.2,1.5-1.2,1.5-2c0-6,0-11.9,0-17.9
	c0-1.5-1.4-2.5-2.6-2.2c-0.8,0.2-1.6,0.5-2.2,1.2c-0.5,0.6-0.8,1.2-0.8,2c0,9.7,0,19.4,0,29c0,0.2,0,0.4,0,0.6
	C87.8,47.3,87.4,47.3,86.9,47.3z M98.7,24.3c0,3.7,0,7.3,0,10.9c0.1,0,0.2,0,0.3,0c1.6,0,3.2,0,4.7,0c0.1,0,0.1,0,0.2,0
	c0.9-0.2,1.8-0.5,2.6-1c1.1-0.7,2-1.6,2.7-2.7c0.4-0.7,0.8-1.4,1.1-2.1c-0.2-0.5-0.3-0.9-0.5-1.4c-0.6-1.6-1.2-3.2-1.7-4.8
	c-0.7-1.8-1.3-3.6-1.9-5.4c-0.3-0.9-0.9-1.7-1.7-2.2c-0.4-0.3-0.9-0.4-1.4-0.4c-0.9,0-1.8,0-2.7,0c-0.8,0-1.3,0.4-1.5,1.1
	c-0.1,0.2-0.1,0.3-0.1,0.5c0,1.6,0,3.3,0,4.9c0,0.1,0,0.2,0,0.3c0.7,0.2,1.4,0.1,2,0.1c0.5,0,1-0.1,1.4-0.3c0.4-0.2,0.7-0.5,1-0.9
	c0.3-0.6,0.4-1.1,0.5-1.8c0-0.3,0.2-0.4,0.4-0.6c0.2-0.1,0.3,0,0.4,0.2c0.1,0.2,0.1,0.4,0.1,0.6c0,2.8,0,5.5,0,8.3
	c0,0.1,0,0.2,0,0.3c0,0.2-0.3,0.4-0.5,0.4c-0.2,0-0.3-0.2-0.4-0.4c0-0.2,0-0.5-0.1-0.7c-0.1-0.6-0.2-1.1-0.5-1.7
	c-0.6-1.1-1.5-1.5-2.7-1.6C99.8,24,99.2,24.2,98.7,24.3z M125.5,28.6c0.2-0.5,0.5-0.9,0.3-1.4c0-0.2-0.1-0.4-0.1-0.6
	c-0.1-0.8-0.3-1.5-0.5-2.2c-0.2-0.6-0.5-1.2-1-1.7c-0.3-0.3-0.7-0.4-1.1-0.4C123.9,24.4,124.7,26.4,125.5,28.6z"/>
<path d="M0,19.8c0.1-0.5,0.2-0.9,0.3-1.4c0.3-1.3,0.6-2.6,0.8-4c0.1-0.6,0.3-1.2,0.4-1.9c0-0.1,0.1-0.3,0.2-0.4
	c0.2-0.3,0.4-0.3,0.7,0c0.1,0.1,0.2,0.3,0.4,0.4C3,12.8,3,13,3.1,13.1c4.2,0,8.3,0,12.5,0c0.2-0.2,0.3-0.5,0.5-0.7
	c0.1-0.1,0.2-0.2,0.3-0.3c0.3-0.1,0.5-0.1,0.6,0.2c0.1,0.3,0.3,0.6,0.4,0.9c2.9,0,5.8,0,8.7,0c0,0.3,0,0.5,0,0.7
	c-0.3,0.1-0.6,0.2-0.9,0.3c-0.4,0.1-0.8,0.3-1.1,0.7c-0.3,0.4-0.5,0.8-0.5,1.3c0,2.3,0,4.6,0,6.8c0,0.2,0,0.3,0,0.5
	c3.5,0,6.9,0,10.3,0c0-0.1,0-0.2,0-0.3c0-2.4,0-4.9,0-7.3c0-0.4-0.1-0.6-0.4-0.9c-0.4-0.5-1-0.7-1.6-0.9c-0.2,0-0.3-0.1-0.5-0.1
	c0-0.2,0-0.4,0-0.6c1.1,0,2.1,0,3.2,0c1.1,0,2.1,0,3.2,0c1.1,0,2.1,0,3.2,0s2.1,0,3.2,0c1.1,0,2.1,0,3.2,0c1.1,0,2.1,0,3.2,0
	c1.1,0,2.1,0,3.2,0c0.1-0.2,0.2-0.3,0.3-0.5c0.2-0.3,0.5-0.3,0.8-0.1c0.2,0.1,0.2,0.3,0.2,0.4c0.1,0.5,0.2,1,0.4,1.5
	c0.4,1.7,0.8,3.3,1.2,5c0,0.2,0,0.4,0.1,0.7c0,0.2-0.1,0.3-0.2,0.4c-0.4,0-0.6-0.3-0.8-0.6c-1-1.3-2-2.6-3.1-3.8
	c-0.3-0.4-0.7-0.6-1.2-0.7c-0.9-0.4-1.8-0.4-2.8-0.3c-0.6,0.1-1.2,0.2-1.7,0.7c-0.2,0.2-0.3,0.4-0.3,0.7c0,2,0,4.1,0,6.1
	c0,0.1,0,0.1,0,0.2c0.1,0,0.2,0,0.3,0c0.8,0,1.6,0,2.5,0c0.6,0,1-0.3,1.4-0.8c0.4-0.5,0.6-1.1,0.7-1.7c0-0.2,0.1-0.3,0.1-0.5
	c0.1-0.3,0.2-0.4,0.5-0.4c0.3,0,0.5,0.2,0.5,0.5c0,0.1,0,0.2,0,0.3c0,2.7,0,5.4,0,8.2c0,0.1,0,0.1,0,0.2c0,0.3-0.3,0.5-0.5,0.5
	c-0.3,0-0.5-0.2-0.5-0.5c-0.1-0.6-0.2-1.1-0.3-1.7c-0.2-0.9-0.7-1.5-1.5-1.9C49.8,25,49.7,25,49.6,25c-1,0-2,0-3,0
	c0,0.1,0,0.2,0,0.3c0,3.1,0,6.1,0,9.2c0,0.4,0.2,0.7,0.4,1c0.1,0.2,0.3,0.2,0.5,0.2c0.6,0,1.1,0,1.7,0c0.8,0,1.6,0,2.4,0
	c0.3,0,0.7-0.1,1-0.2c1.4-0.4,2.5-1.3,3.4-2.5c0.6-0.8,1-1.6,1.4-2.5c0.1-0.2,0.1-0.3,0.2-0.5c0.1-0.2,0.4-0.3,0.6-0.2
	c0.2,0.1,0.3,0.3,0.2,0.5c-0.1,0.4-0.2,0.7-0.3,1.1c-0.4,1.6-0.8,3.2-1.3,4.8c-0.1,0.3-0.1,0.5-0.2,0.8c-0.1,0.4-0.5,0.7-1,0.4
	c-0.2-0.1-0.3-0.2-0.4-0.4c-0.1-0.1-0.2-0.2-0.4-0.2c-0.1,0-0.2,0-0.3,0c-4.4,0-8.8-0.1-13.3,0c-3.1,0.1-6.2,0-9.3,0.1
	c-0.2,0-0.3,0-0.5,0c0-0.1,0-0.2,0-0.3c0-0.5,0-0.5,0.5-0.6c0.4-0.1,0.8-0.3,1.2-0.5c0.5-0.3,0.9-0.7,0.9-1.4c0-2.7,0-5.4,0-8.1
	c0-0.1,0-0.3,0-0.4c0,0,0,0-0.1-0.1c0,0,0,0,0,0c0,0,0,0,0,0c-3.2,0-6.4,0-9.7,0c-0.2,0-0.3,0-0.5,0c0,0.1,0,0.2,0,0.3
	c0,2.7,0,5.4,0,8.2c0,0.7,0.4,1.2,1,1.5c0.4,0.2,0.8,0.3,1.2,0.5c0.1,0,0.2,0.1,0.3,0.1c0,0.2,0,0.4,0,0.6c-0.1,0-0.2,0.1-0.3,0.1
	c-2.9,0-5.8,0-8.7,0c-0.1,0-0.1,0-0.2,0c0-0.2,0-0.4,0-0.7c0.3-0.1,0.6-0.1,0.9-0.2c0.4-0.1,0.7-0.2,1-0.4c0.3-0.2,0.5-0.6,0.5-1
	c0-6.3,0-12.6,0-19c0-0.5-0.2-0.9-0.7-1.1c-0.3-0.2-0.7-0.3-1.1-0.4c0.1,0.6,0.2,1.1,0.3,1.6c0.3,1.5,0.6,3,0.9,4.4
	c0,0.2,0,0.4-0.2,0.5c-0.2,0.1-0.3,0-0.4-0.3c-0.3-0.7-0.7-1.4-1.1-2c-0.5-0.8-1.2-1.5-1.9-2.1c-0.6-0.4-1.2-0.7-1.9-0.8
	c-0.6-0.1-1.3,0.3-1.5,0.9c-0.1,0.3-0.2,0.7-0.2,1.1c0,5.4,0,10.9,0,16.3c0,0.8,0.4,1.3,1,1.7c0.5,0.3,1,0.5,1.6,0.7
	c0.4,0.1,0.4,0.1,0.4,0.6c0,0,0,0,0,0c0,0,0,0,0,0c-0.1,0-0.2,0-0.3,0c-3.3,0-6.6,0-9.8,0c0,0-0.1,0-0.1,0c0-0.1,0-0.2,0-0.3
	c0-0.2,0.1-0.3,0.3-0.3C5,36.1,5.5,35.9,6,35.6c0.3-0.2,0.5-0.3,0.7-0.6c0.3-0.3,0.4-0.7,0.4-1.1c0-5.5,0-11.1,0-16.6
	c0-0.5-0.1-0.9-0.4-1.3c-0.3-0.4-0.8-0.6-1.3-0.5c-1,0.1-1.7,0.6-2.4,1.3c-1,0.9-1.8,2.1-2.4,3.3c0,0.1-0.1,0.2-0.1,0.3
	c-0.2,0.3-0.2,0.3-0.6,0.2C0,20.3,0,20.1,0,19.8z M38.3,25c0,3.2,0,6.3,0,9.5c0,0.5,0.3,0.9,0.7,1.1c0.1,0.1,0.2,0.1,0.4,0.2
	c0.4,0.1,0.8,0.3,1.3,0.3c0.5,0.1,0.9-0.1,1.2-0.5c0.2-0.3,0.3-0.6,0.3-0.9c0-6.3,0-12.5,0-18.8c0-0.5-0.2-0.8-0.6-1.1
	c-0.4-0.3-1-0.3-1.5-0.4c-0.3,0-0.6,0-0.9,0.1c-0.2,0-0.3,0.1-0.4,0.2c-0.3,0.3-0.4,0.5-0.4,0.9C38.3,18.7,38.3,21.9,38.3,25z"/>
<path d="M93.5,0c0.1,0,0.3,0.1,0.4,0.1c0.9,0.3,1.6,0.8,2.1,1.6c0.2,0.4,0.4,0.9,0.5,1.4c0.1,0.4,0.1,0.9,0.1,1.3
	c0,0.9-0.2,1.7-0.7,2.5c-0.6,0.9-1.5,1.3-2.6,1.5c-0.6,0.1-1.2,0.1-1.8-0.1C90,8,89.1,7,88.7,5.5c-0.2-0.9-0.2-1.8,0-2.7
	c0.4-1.5,1.3-2.5,2.9-2.8c0,0,0,0,0.1-0.1C92.3,0,92.9,0,93.5,0z M92.6,1.5c-0.8,0-1.4,0.3-1.8,1c-0.2,0.3-0.3,0.7-0.4,1.1
	c-0.1,0.6,0,1.3,0.1,1.8c0.3,1,1.4,1.7,2.5,1.5c0.7-0.2,1.2-0.6,1.5-1.3c0.2-0.4,0.2-0.8,0.2-1.2c0-0.5,0-0.9-0.2-1.4
	C94.3,2,93.6,1.5,92.6,1.5z"/>
<path d="M56.7,4.9c0,1.1,0,2.2,0,3.3c-0.4,0.1-1.3,0.1-1.7,0c0-2.7,0-5.4,0-8.2c0.1,0,0.2,0,0.3,0c1.2,0,2.3,0,3.5,0
	c0.5,0,0.9,0.1,1.4,0.2c0.8,0.1,1.2,0.7,1.5,1.4c0.2,0.5,0.2,1,0,1.5c-0.2,0.7-0.7,1.1-1.3,1.4c-0.2,0.1-0.3,0.1-0.5,0.2
	c1,0.7,1.4,1.6,2,2.5c0.1,0.2,0.3,0.4,0.4,0.6c0.1,0.1,0.1,0.3,0.2,0.5c-0.1,0-0.2,0.1-0.3,0.1c-0.5,0-1,0-1.4,0
	c-0.2,0-0.4-0.1-0.5-0.3c-0.5-0.8-1.1-1.6-1.6-2.4C58.1,5,57.5,4.9,56.7,4.9z M56.8,3.5c0.1,0,0.1,0,0.1,0c0.8,0,1.5,0,2.3-0.1
	c0.3,0,0.6-0.2,0.7-0.5c0.2-0.5,0.1-1.2-0.7-1.4c-0.1,0-0.2,0-0.3,0c-0.4,0-0.9,0-1.3,0c-0.2,0-0.5,0-0.8,0
	C56.8,2.3,56.8,2.9,56.8,3.5z"/>
<path d="M37.2,5.3c0-1.7,0-3.4,0-5.2c0.5,0,1,0,1.5,0c0.1,0.3,0.1,7.5,0,8.2c-0.1,0-0.2,0-0.3,0c-0.4,0-0.7,0-1.1,0
	c-0.3,0-0.4-0.1-0.5-0.3C36,6.5,35,4.9,34,3.4c0,0,0,0-0.1-0.1c0,1.7,0,3.3,0,5c-0.3,0-0.6,0-0.8,0c-0.3,0-0.5,0-0.8,0
	c0,0-0.1-0.1-0.1-0.1c0,0,0,0,0,0c0-0.1,0-0.2,0-0.3c0-2.6,0-5.1,0-7.7c0,0,0-0.1,0-0.2c0.3-0.1,0.7,0,1,0c0.5-0.1,0.7,0.1,1,0.5
	c0.9,1.5,1.9,3,2.8,4.6C37.1,5.2,37.1,5.3,37.2,5.3C37.2,5.3,37.2,5.3,37.2,5.3z"/>
<path d="M104.3,8.4c-0.5,0-1,0-1.5,0c-0.2,0-0.2-0.1-0.3-0.2c-0.3-0.5-0.6-1-0.9-1.5c-0.7-1.1-1.3-2.1-2-3.2c0-0.1-0.1-0.1-0.2-0.2
	c0,1.7,0,3.4,0,5.1c-0.3,0-0.6,0-0.8,0c-0.3,0-0.5,0-0.7,0c0-0.1-0.1-0.1-0.1-0.1c0,0,0,0,0,0c0-2.6,0-5.2,0-7.7c0-0.1,0-0.2,0-0.3
	c0,0,0,0,0.1-0.1c0.5,0,1.1,0,1.6,0c1.1,1.7,2.1,3.5,3.3,5.4c0-1.8,0-3.6,0-5.4c0.3,0,0.5,0,0.8,0c0.2,0,0.5,0,0.8,0
	c0,0.1,0.1,0.2,0.1,0.3c0,2.5,0,5.1,0,7.6C104.3,8.1,104.3,8.2,104.3,8.4z"/>
<path d="M68.1,0.1c0.6,0,1,0,1.5,0c0,0,0,0,0,0c0,0,0,0,0,0c0,0.1,0,0.1,0,0.2c0,2.6,0,5.2,0,7.8c0,0,0,0.1,0,0.2
	c-0.3,0.1-0.7,0-1,0c-0.7,0-0.7,0-1-0.5c-0.9-1.5-1.8-3-2.7-4.4c0,0,0,0-0.1-0.1c0,1.7,0,3.3,0,5c-0.5,0.1-1,0-1.5,0
	c-0.1-0.4-0.1-7.6,0-8.2c0.1,0,0.2,0,0.3,0c0.3,0,0.7,0,1,0c0.2,0,0.4,0.1,0.5,0.3c0.8,1.3,1.6,2.7,2.5,4c0.2,0.3,0.4,0.6,0.6,0.9
	c0-0.9,0-1.7,0-2.6C68.1,1.9,68.1,1,68.1,0.1z"/>
<path d="M53.2,3.3c0,0.5,0,0.9,0,1.4c-1.3,0-2.6,0-4,0c-0.1,0.4,0,0.7-0.1,1c0,0.3,0,0.7,0,1.1c0.2,0,0.3,0,0.5,0c1.2,0,2.3,0,3.5,0
	c0.2,0,0.3,0,0.5,0c0,0.3,0,0.5,0,0.7c0,0.2,0,0.5,0,0.7c0,0-0.1,0.1-0.1,0.1c0,0,0,0,0,0c-0.1,0-0.1,0-0.2,0c-1.9,0-3.9,0-5.8,0
	c0,0-0.1,0-0.1,0c0,0,0,0,0,0c0,0,0,0,0,0c0-2.5,0-5.1,0-7.6c0-0.1,0-0.3,0-0.4c0,0,0-0.1,0-0.1c0.3-0.1,5.3-0.1,6,0
	c0.1,0.5,0,0.9,0,1.5c-0.5,0-1,0-1.4,0c-0.5,0-1,0-1.4,0c-0.5,0-0.9,0-1.4,0c0,0.6,0,1.1,0,1.7c0.3,0.1,0.7,0,1,0.1c0.3,0,0.7,0,1,0
	c0.3,0,0.6,0,1,0C52.5,3.3,52.8,3.3,53.2,3.3z"/>
<path d="M107.7,6.5c-0.2,0.5-0.4,1-0.6,1.5c-0.1,0.3-0.1,0.3-0.5,0.3c-0.4,0-0.8,0-1.2,0c-0.1,0-0.2,0-0.3,0
	c1.1-2.7,2.1-5.5,3.2-8.2c0.4-0.1,0.8,0,1.2,0c0.8,0,0.6-0.1,0.9,0.6c0.9,2.3,1.8,4.6,2.8,6.9c0.1,0.2,0.2,0.4,0.3,0.7
	c-0.1,0-0.2,0.1-0.3,0.1c-0.4,0-0.9,0-1.3,0c-0.2,0-0.3-0.1-0.4-0.3c-0.2-0.5-0.4-1-0.6-1.5C109.8,6.5,108.7,6.5,107.7,6.5z
	 M109.2,2.2c-0.3,0.9-0.7,1.8-1,2.8c0.4,0,0.7,0,1,0c0.3,0,0.6,0,1,0C109.9,4,109.6,3.1,109.2,2.2z"/>
<path d="M78.8,8.3c-0.7,0-1.2,0-1.9,0c-0.2-0.6-0.5-1.2-0.7-1.8c-0.4-0.1-2.7-0.1-3.2,0c-0.2,0.6-0.4,1.2-0.7,1.8
	c-0.6,0-1.2,0-1.8,0c0.2-0.8,0.5-1.4,0.8-2.1c0.3-0.7,0.5-1.4,0.8-2c0.3-0.7,0.5-1.4,0.8-2c0.3-0.7,0.5-1.4,0.8-2.1
	c0.4-0.1,0.8,0,1.2,0c0.8,0,0.6,0,0.9,0.6c0.9,2.3,1.8,4.6,2.7,6.8C78.6,7.7,78.7,8,78.8,8.3z M74.7,2.4C74.6,2.3,74.6,2.3,74.7,2.4
	c-0.4,0.9-0.7,1.7-1,2.6c0.4,0,0.7,0,1,0c0.3,0,0.6,0,1,0C75.3,4.1,75,3.2,74.7,2.4z"/>
<path d="M44,1.6c0,2.3,0,4.5,0,6.7c-0.6,0-1.1,0-1.7,0c0-2.3,0-4.5,0-6.8c-0.8,0-1.6,0-2.4,0c-0.1-0.5,0-1,0-1.4
	c0.4-0.1,5.9-0.1,6.6,0c0.1,0.5,0,0.9,0,1.4C45.6,1.6,44.9,1.6,44,1.6z"/>
<path d="M84.8,0.1c0,0.5,0,0.9,0,1.4c-0.4,0.1-0.8,0-1.2,0c-0.4,0-0.8,0-1.2,0c0,0.2,0,0.3,0,0.5c0,1.9,0,3.8,0,5.8
	c0,0.2,0,0.3,0,0.5c-0.6,0-1.1,0-1.7,0c0-0.2,0-0.3,0-0.5c0-1.9,0-3.8,0-5.8c0-0.2,0-0.3,0-0.5c-0.8,0-1.6,0-2.4,0
	c-0.1-0.5,0-1,0-1.4c0,0,0,0,0.1-0.1c0,0,0,0,0,0c0.1,0,0.2,0,0.3,0c2,0,4,0,6.1,0C84.7,0.1,84.7,0.1,84.8,0.1z"/>
<path d="M115.9,6.9c1.4,0,2.7,0,4.1,0c0.1,0.5,0,1,0,1.5c-1.9,0-3.8,0-5.7,0c0,0,0,0,0,0c0,0,0,0,0,0c0-2.5,0-5.1,0-7.6
	c0-0.1,0-0.3,0-0.4c0.3-0.1,1.1-0.1,1.7,0c0.1,0.4,0,0.9,0,1.3c0,0.4,0,0.9,0,1.3c0,0.5,0,0.9,0,1.4c0,0.4,0,0.9,0,1.3
	C115.9,5.9,115.9,6.4,115.9,6.9z"/>
<path d="M29.1,0.1c0.5,0,1.1,0,1.6,0c0,0,0,0,0,0c0,0,0,0,0,0c0,0.1,0,0.2,0,0.3c0,2.6,0,5.1,0,7.7c0,0,0,0.1-0.1,0.1
	c-0.5,0-1.1,0-1.6,0c0,0-0.1-0.1-0.1-0.1c0,0,0,0,0,0c0-0.1,0-0.2,0-0.3c0-2.6,0-5.1,0-7.7C29.1,0.2,29.1,0.2,29.1,0.1z"/>
<path d="M87.4,8.3c-0.6,0-1.1,0-1.6,0c0,0,0,0,0,0c0,0,0,0,0,0c0-0.1,0-0.1,0-0.2c0-2.6,0-5.2,0-7.8c0,0,0-0.1,0-0.2
	c0.5,0,1.1,0,1.6,0c0,0,0.1,0,0.1,0.1c0,0,0,0,0,0c0,0.1,0,0.1,0,0.2c0,2.6,0,5.2,0,7.8C87.5,8.2,87.5,8.2,87.4,8.3z"/>
</svg>
